# xmcd
#
# Track frame offsets: 
#        150
#        21451
#        45217
#        64865
#
# Disc length: 1148 seconds
#
# Revision: 3
# Processed by: cddbd v1.5.2PL0 Copyright (c) Steve Scherf et al.
# Submitted via: ExactAudioCopy v1.0b3
#
DISCID=2c047a04
DTITLE=沢井美空 - ごめんね、いいコじゃいられない。
DYEAR=2013
DGENRE=JPop
TTITLE0=ごめんね、いいコじゃいられない。
TTITLE1=コトバ
TTITLE2=君だけにアイラブユー
TTITLE3=ごめんね、いいコじゃいられない。(Instrumental)
EXTD=
EXTT0=
EXTT1=
EXTT2=
EXTT3=
PLAYORDER=
